<?xml version="1.0" encoding="UTF-8"?>
<svg xmlns="http://www.w3.org/2000/svg" viewBox="0 0 96 96">
  <defs>
    <style>
      .c1{fill:#573689}
      .c2{fill:#c5a700}
    </style>
  </defs>
  <circle cx="48" cy="48" r="46" fill="#0b1020"/>
  <ellipse class="c2" cx="46" cy="48" rx="28" ry="16"/>
  <path class="c1" d="M78,61H69.6c-.78,0-1.5.4-1.93,1.06-2.09,3.19-5.33,6.14-9.9,8.88-8.08,4.75-16.02,6.93-27.73,6.93-8.75,0-19.63-2.34-26.26-5.54C-4.6,67.67-9.62,60.85-9.61,51.92c0-8.94,5.01-15.75,13.34-19.41,6.63-3.2,17.51-5.54,26.26-5.54,11.71,0,17.93,0,28.04,6.41,0,0,5.47,3.21,9.23,8.8.43.64,1.15,1.01,1.92,1.01H78c1.28,0,2.32-1.04,2.32-2.32v-10.62c0-.76-.37-1.47-1-1.9C68.6,22.05,51.84,17,34.14,17,0.56,17-27,32.06-27,52s27.56,35,61.14,35c17.7,0,34.46-5.05,44.18-13.02.63-.44,1-1.14,1-1.9v-11.38c0-1.28-1.04-2.32-2.32-2.32Z" transform="translate(30 -5)"/>
</svg> 